<mxfile host="app.diagrams.net" modified="2023-11-13T23:25:49.087Z" agent="Mozilla/5.0 (Windows NT 10.0; Win64; x64) AppleWebKit/537.36 (KHTML, like Gecko) Chrome/119.0.0.0 Safari/537.36" etag="vKZDIBjZ3Aecs80WX6Q7" version="22.1.0" type="device" pages="2">
  <diagram name="ArchitectureOverview" id="-4IQNvBLCupUBxrnwTyC">
    <mxGraphModel dx="1434" dy="782" grid="1" gridSize="10" guides="1" tooltips="1" connect="1" arrows="1" fold="1" page="1" pageScale="1" pageWidth="827" pageHeight="1169" math="0" shadow="0">
      <root>
        <mxCell id="0" />
        <mxCell id="1" parent="0" />
        <mxCell id="SDYDXIjIWfLccGfPLISI-1" value="Movie Aggregator" style="rounded=0;whiteSpace=wrap;html=1;" vertex="1" parent="1">
          <mxGeometry x="310" y="350" width="150" height="100" as="geometry" />
        </mxCell>
        <mxCell id="SDYDXIjIWfLccGfPLISI-2" value="Movie API" style="rounded=0;whiteSpace=wrap;html=1;" vertex="1" parent="1">
          <mxGeometry x="310" y="140" width="150" height="100" as="geometry" />
        </mxCell>
        <mxCell id="SDYDXIjIWfLccGfPLISI-3" value="Cinema API" style="rounded=0;whiteSpace=wrap;html=1;" vertex="1" parent="1">
          <mxGeometry x="540" y="350" width="150" height="100" as="geometry" />
        </mxCell>
        <mxCell id="SDYDXIjIWfLccGfPLISI-4" value="" style="endArrow=classic;html=1;rounded=0;exitX=0.5;exitY=0;exitDx=0;exitDy=0;entryX=0.5;entryY=1;entryDx=0;entryDy=0;" edge="1" parent="1" source="SDYDXIjIWfLccGfPLISI-1" target="SDYDXIjIWfLccGfPLISI-2">
          <mxGeometry width="50" height="50" relative="1" as="geometry">
            <mxPoint x="570" y="570" as="sourcePoint" />
            <mxPoint x="620" y="520" as="targetPoint" />
          </mxGeometry>
        </mxCell>
        <mxCell id="SDYDXIjIWfLccGfPLISI-5" value="" style="endArrow=classic;startArrow=classic;html=1;rounded=0;entryX=0;entryY=0.5;entryDx=0;entryDy=0;exitX=1;exitY=0.5;exitDx=0;exitDy=0;" edge="1" parent="1" source="SDYDXIjIWfLccGfPLISI-1" target="SDYDXIjIWfLccGfPLISI-3">
          <mxGeometry width="50" height="50" relative="1" as="geometry">
            <mxPoint x="410" y="560" as="sourcePoint" />
            <mxPoint x="460" y="510" as="targetPoint" />
          </mxGeometry>
        </mxCell>
        <mxCell id="SDYDXIjIWfLccGfPLISI-6" value="GRPC" style="text;html=1;strokeColor=none;fillColor=none;align=center;verticalAlign=middle;whiteSpace=wrap;rounded=0;" vertex="1" parent="1">
          <mxGeometry x="384" y="290" width="60" height="30" as="geometry" />
        </mxCell>
        <mxCell id="SDYDXIjIWfLccGfPLISI-7" value="GRPC" style="text;html=1;strokeColor=none;fillColor=none;align=center;verticalAlign=middle;whiteSpace=wrap;rounded=0;" vertex="1" parent="1">
          <mxGeometry x="470" y="370" width="60" height="30" as="geometry" />
        </mxCell>
        <mxCell id="SDYDXIjIWfLccGfPLISI-8" value="HTTP" style="text;html=1;strokeColor=none;fillColor=none;align=center;verticalAlign=middle;whiteSpace=wrap;rounded=0;" vertex="1" parent="1">
          <mxGeometry x="60" y="359.5" width="60" height="30" as="geometry" />
        </mxCell>
        <mxCell id="SDYDXIjIWfLccGfPLISI-9" value="" style="shape=flexArrow;endArrow=classic;html=1;rounded=0;entryX=0;entryY=0.5;entryDx=0;entryDy=0;" edge="1" parent="1">
          <mxGeometry width="50" height="50" relative="1" as="geometry">
            <mxPoint y="389.5" as="sourcePoint" />
            <mxPoint x="170" y="389.5" as="targetPoint" />
          </mxGeometry>
        </mxCell>
        <mxCell id="SDYDXIjIWfLccGfPLISI-10" value="Redis" style="ellipse;shape=cloud;whiteSpace=wrap;html=1;" vertex="1" parent="1">
          <mxGeometry x="325" y="310" width="120" height="80" as="geometry" />
        </mxCell>
        <mxCell id="SDYDXIjIWfLccGfPLISI-11" value="API&lt;br&gt;Gateway&lt;br&gt;(ex.:Ocelot)" style="rounded=0;whiteSpace=wrap;html=1;fillColor=none;dashed=1;dashPattern=12 12;" vertex="1" parent="1">
          <mxGeometry x="180" y="130" width="90" height="490" as="geometry" />
        </mxCell>
      </root>
    </mxGraphModel>
  </diagram>
  <diagram id="nFK75f-ONjdwUn2jNcA1" name="CinemaServiceArchitecture">
    <mxGraphModel dx="1434" dy="782" grid="1" gridSize="10" guides="1" tooltips="1" connect="1" arrows="1" fold="1" page="1" pageScale="1" pageWidth="827" pageHeight="1169" math="0" shadow="0">
      <root>
        <mxCell id="0" />
        <mxCell id="1" parent="0" />
        <mxCell id="zhxIdLXXywzFOhzoTMi_-4" value="APPLICA" style="rounded=0;whiteSpace=wrap;html=1;" vertex="1" parent="1">
          <mxGeometry x="210" y="279" width="230" height="451" as="geometry" />
        </mxCell>
        <mxCell id="zhxIdLXXywzFOhzoTMi_-1" value="API" style="rounded=0;whiteSpace=wrap;html=1;" vertex="1" parent="1">
          <mxGeometry x="100" y="280" width="70" height="450" as="geometry" />
        </mxCell>
        <mxCell id="zhxIdLXXywzFOhzoTMi_-2" value="Query" style="rounded=0;whiteSpace=wrap;html=1;" vertex="1" parent="1">
          <mxGeometry x="260" y="320" width="120" height="130" as="geometry" />
        </mxCell>
        <mxCell id="zhxIdLXXywzFOhzoTMi_-3" value="Commands" style="rounded=0;whiteSpace=wrap;html=1;" vertex="1" parent="1">
          <mxGeometry x="260" y="470" width="120" height="240" as="geometry" />
        </mxCell>
        <mxCell id="zhxIdLXXywzFOhzoTMi_-5" value="APPLICATION" style="text;html=1;strokeColor=none;fillColor=none;align=center;verticalAlign=middle;whiteSpace=wrap;rounded=0;" vertex="1" parent="1">
          <mxGeometry x="290" y="280" width="60" height="30" as="geometry" />
        </mxCell>
        <mxCell id="zhxIdLXXywzFOhzoTMi_-6" value="" style="shape=cylinder3;whiteSpace=wrap;html=1;boundedLbl=1;backgroundOutline=1;size=15;" vertex="1" parent="1">
          <mxGeometry x="730" y="450" width="60" height="80" as="geometry" />
        </mxCell>
        <mxCell id="zhxIdLXXywzFOhzoTMi_-7" value="" style="rounded=0;whiteSpace=wrap;html=1;" vertex="1" parent="1">
          <mxGeometry x="490" y="280" width="120" height="450" as="geometry" />
        </mxCell>
      </root>
    </mxGraphModel>
  </diagram>
</mxfile>
